<svg height="512pt" viewBox="-25 0 511 512" width="512pt" xmlns="http://www.w3.org/2000/svg"><path d="m77.863281 8.003906h333.992188v248.40625h-333.992188zm0 0" fill="#ccc"/><path d="m38.476562 53.929688h333.992188v248.410156h-333.992188zm0 0" fill="#e6e6e6"/><path d="m372.46875 85.933594v216.40625h-333.992188v-148.980469c4.839844-1.75 10.070313-2.710937 15.515626-2.710937h130.304687c15.75 0 30.394531-8.160157 38.679687-21.574219l13.335938-21.570313c8.289062-13.402344 22.929688-21.570312 38.691406-21.570312zm0 0" fill="#ccc"/><path d="m236.3125 129.773438-13.332031 21.570312c-8.289063 13.410156-22.925781 21.570312-38.6875 21.570312h-130.304688c-25.117187 0-45.480469 20.359376-45.480469 45.480469v240.117188c0 25.117187 20.363282 45.476562 45.480469 45.476562h354.410157c25.121093 0 45.480468-20.359375 45.480468-45.476562v-304.828125c0-25.121094-20.359375-45.480469-45.480468-45.480469h-133.398438c-15.761719 0-30.398438 8.160156-38.6875 21.570313zm0 0" fill="#f4d553"/><path d="m248.027344 151.34375 13.335937-21.570312c8.285157-13.410157 22.925781-21.570313 38.6875-21.570313h-25.050781c-15.761719 0-30.398438 8.160156-38.6875 21.570313l-13.332031 21.570312c-8.289063 13.410156-22.925781 21.570312-38.6875 21.570312h25.050781c15.761719 0 30.398438-8.160156 38.683594-21.570312zm0 0" fill="#f2a755"/><path d="m33.558594 458.511719v-240.117188c0-25.117187 20.363281-45.480469 45.480468-45.480469h-25.050781c-25.117187 0-45.476562 20.363282-45.476562 45.480469v240.117188c0 25.117187 20.359375 45.480469 45.476562 45.480469h25.050781c-25.117187 0-45.480468-20.363282-45.480468-45.480469zm0 0" fill="#f2a755"/><path d="m230.261719 325.296875h-137.25c-16.285157 0-29.484375-13.199219-29.484375-29.484375v-30.789062c0-16.285157 13.199218-29.488282 29.484375-29.488282h137.25c16.285156 0 29.484375 13.203125 29.484375 29.488282v30.789062c0 16.285156-13.199219 29.484375-29.484375 29.484375zm0 0" fill="#e6e6e6"/><path d="m453.878906 332.304688c4.425782 0 8.007813-3.585938 8.007813-8.011719v-170.609375c0-25.558594-18.023438-46.976563-42.023438-52.238282v-93.4375c0-4.421874-3.585937-8.007812-8.007812-8.007812h-333.996094c-4.421875 0-8.007813 3.585938-8.007813 8.007812v37.910157h-31.375c-4.421874 0-8.007812 3.585937-8.007812 8.011719v116.4375c-17.734375 8.71875-29.96875 26.96875-29.96875 48.027343v240.117188c0 29.492187 23.996094 53.488281 53.488281 53.488281h354.414063c29.492187 0 53.488281-23.996094 53.488281-53.488281v-102.179688c0-4.421875-3.585937-8.007812-8.011719-8.007812-4.421875 0-8.007812 3.585937-8.007812 8.007812v102.179688c0 20.660156-16.808594 37.46875-37.46875 37.46875h-354.414063c-20.660156 0-37.46875-16.808594-37.46875-37.46875v-240.117188c0-20.664062 16.808594-37.472656 37.46875-37.472656h130.304688c18.671875 0 35.683593-9.480469 45.5-25.363281l13.332031-21.574219c6.878906-11.128906 18.792969-17.769531 31.875-17.769531h133.402344c20.660156 0 37.46875 16.808594 37.46875 37.46875v170.613281c0 4.421875 3.585937 8.007813 8.007812 8.007813zm-224.378906-206.742188-13.332031 21.574219c-6.878907 11.125-18.792969 17.769531-31.875 17.769531h-130.304688c-2.546875 0-5.046875.191406-7.5.535156v-103.503906h57.382813c4.425781 0 8.007812-3.585938 8.007812-8.007812 0-4.425782-3.582031-8.011719-8.007812-8.011719h-18v-29.898438h317.972656v84.175781h-23.363281v-46.265624c0-4.425782-3.585938-8.011719-8.011719-8.011719h-236.558594c-4.425781 0-8.007812 3.585937-8.007812 8.011719 0 4.421874 3.582031 8.007812 8.007812 8.007812h228.550782v38.257812h-89.460938c-18.671875 0-35.683594 9.480469-45.5 25.367188zm0 0"/><path d="m93.011719 227.527344c-20.671875 0-37.492188 16.820312-37.492188 37.496094v30.789062c0 20.675781 16.820313 37.496094 37.492188 37.496094h137.25c20.675781 0 37.496093-16.820313 37.496093-37.496094v-30.789062c0-20.675782-16.820312-37.496094-37.496093-37.496094zm158.726562 37.496094v30.789062c0 11.84375-9.632812 21.476562-21.476562 21.476562h-137.25c-11.839844 0-21.476563-9.632812-21.476563-21.476562v-30.789062c0-11.84375 9.636719-21.476563 21.476563-21.476563h137.25c11.84375 0 21.476562 9.632813 21.476562 21.476563zm0 0"/><path d="m214.867188 288.238281h-106.460938c-4.421875 0-8.007812 3.585938-8.007812 8.011719 0 4.421875 3.585937 8.007812 8.007812 8.007812h106.460938c4.425781 0 8.007812-3.585937 8.007812-8.007812 0-4.425781-3.582031-8.011719-8.007812-8.011719zm0 0"/><path d="m214.867188 256.578125h-106.460938c-4.421875 0-8.007812 3.585937-8.007812 8.011719 0 4.421875 3.585937 8.007812 8.007812 8.007812h106.460938c4.425781 0 8.007812-3.585937 8.007812-8.007812 0-4.425782-3.582031-8.011719-8.007812-8.011719zm0 0"/></svg>