<svg id="Capa_1" enable-background="new 0 0 511.943 511.943" height="512" viewBox="0 0 511.943 511.943" width="512" xmlns="http://www.w3.org/2000/svg"><g><g><path d="m199.6 8.499c73.943-2.691 147.876-.097 221.808 7.77 20.566 2.183 36.669 18.653 38.312 39.263 10.656 133.621 10.656 267.242 0 400.874-1.643 20.609-17.746 37.08-38.312 39.263-110.277 11.737-220.565 11.737-330.853 0-20.555-2.183-36.669-18.653-38.312-39.263-7.954-99.805-9.975-199.599-6.041-299.393" fill="#f9f6f9"/><path d="m46.202 157.013c36.345-1.308 72.69-3.901 109.045-7.77 20.555-2.183 36.669-18.653 38.312-39.263 2.702-33.827 4.712-67.653 6.041-101.48-36.345 1.307-152.069 114.686-153.398 148.513z" fill="#e2dfe2"/><path d="m412.971 293.492-44.52-77.1c-7.32-12.68-20.85-20.49-35.48-20.49h-89.03c-14.64 0-28.17 7.81-35.49 20.49l-44.51 77.1c-7.32 12.68-7.32 28.3 0 40.98l44.51 77.1c7.32 12.68 20.85 20.49 35.49 20.49h89.03c14.63 0 28.16-7.81 35.48-20.49l44.52-77.1c7.32-12.68 7.32-28.3 0-40.98zm-124.52 79.84c-32.78 0-59.35-26.57-59.35-59.35s26.57-59.36 59.35-59.36 59.36 26.58 59.36 59.36-26.58 59.35-59.36 59.35z" fill="#c3bec6"/></g><g><path d="m467.198 54.952c-1.923-24.165-20.847-43.563-44.993-46.123-73.929-7.869-148.902-10.496-222.83-7.809-.015 0-.03-.001-.045-.001-28.5 1.025-83.962 53.644-94.791 64.182-10.806 10.515-64.764 64.348-65.832 91.532v.009c-3.724 94.676-2.071 190.657 4.915 285.277.291 3.943 3.581 6.948 7.472 6.948.185 0 .372-.007.56-.021 4.131-.305 7.232-3.901 6.927-8.032-6.774-91.759-8.489-184.801-5.133-276.674 34.035-1.38 68.509-3.898 102.59-7.525 24.146-2.565 43.07-21.963 44.996-46.124 2.505-31.358 4.437-63.212 5.767-94.801 70.99-2.259 142.885.404 213.819 7.954 16.974 1.8 30.274 15.425 31.625 32.398 10.568 132.598 10.568 267.07 0 399.679-1.35 16.97-14.652 30.599-31.627 32.407-109.24 11.62-220.024 11.62-329.273 0-12.379-1.317-23.301-9.146-28.503-20.432-1.733-3.762-6.188-5.407-9.951-3.671-3.762 1.734-5.405 6.189-3.671 9.951 7.401 16.056 22.934 27.194 40.538 29.068 55.151 5.866 110.689 8.798 166.227 8.798 55.537 0 111.074-2.933 166.221-8.798 24.147-2.573 43.069-21.975 44.992-46.132 10.632-133.399 10.632-268.672 0-402.06zm-281.116 54.447c-1.353 16.971-14.654 30.598-31.629 32.401-32.691 3.479-65.746 5.942-98.415 7.336 6.535-14.896 26.604-41.695 58.962-73.184 34.192-33.274 61.541-51.997 76.699-57.894-1.317 30.449-3.204 61.127-5.617 91.341z"/><path d="m201.957 212.656-44.522 77.105c-8.618 14.949-8.618 33.522.002 48.477l44.52 77.099c8.631 14.952 24.715 24.24 41.975 24.24h89.04c17.259 0 33.343-9.288 41.975-24.24l44.509-77.099c5.521-9.557 7.618-20.831 5.905-31.744-.642-4.092-4.484-6.892-8.572-6.247-4.092.642-6.889 4.48-6.247 8.572 1.183 7.536-.265 15.319-4.076 21.918l-44.51 77.1c-5.961 10.326-17.067 16.74-28.985 16.74h-89.04c-11.918 0-23.024-6.414-28.985-16.74l-44.518-77.095c-5.954-10.329-5.954-23.16-.002-33.484l44.52-77.101c5.961-10.325 17.067-16.739 28.985-16.739h89.04c11.917 0 23.023 6.414 28.985 16.739l37.01 64.11c2.07 3.588 6.659 4.816 10.245 2.746 3.587-2.071 4.817-6.658 2.746-10.245l-37.01-64.11c-8.632-14.952-24.716-24.24-41.975-24.24h-89.04c-17.26-.001-33.344 9.287-41.975 24.238z"/><path d="m221.596 313.996c0 36.864 29.991 66.855 66.855 66.855s66.856-29.991 66.856-66.855-29.992-66.856-66.856-66.856-66.855 29.992-66.855 66.856zm118.711 0c0 28.593-23.263 51.855-51.856 51.855s-51.855-23.262-51.855-51.855 23.262-51.856 51.855-51.856 51.856 23.263 51.856 51.856z"/><path d="m398.23 81.408h-65.226c-4.142 0-7.5 3.358-7.5 7.5s3.358 7.5 7.5 7.5h65.226c4.142 0 7.5-3.358 7.5-7.5s-3.358-7.5-7.5-7.5z"/><path d="m309.062 81.408h-16.896c-4.142 0-7.5 3.358-7.5 7.5s3.358 7.5 7.5 7.5h16.896c4.142 0 7.5-3.358 7.5-7.5s-3.358-7.5-7.5-7.5z"/><path d="m398.23 112.746h-65.226c-4.142 0-7.5 3.358-7.5 7.5s3.358 7.5 7.5 7.5h65.226c4.142 0 7.5-3.358 7.5-7.5s-3.358-7.5-7.5-7.5z"/><path d="m309.062 112.746h-16.896c-4.142 0-7.5 3.358-7.5 7.5s3.358 7.5 7.5 7.5h16.896c4.142 0 7.5-3.358 7.5-7.5s-3.358-7.5-7.5-7.5z"/><path d="m398.23 144.083h-65.226c-4.142 0-7.5 3.358-7.5 7.5s3.358 7.5 7.5 7.5h65.226c4.142 0 7.5-3.358 7.5-7.5s-3.358-7.5-7.5-7.5z"/><path d="m309.062 144.083h-16.896c-4.142 0-7.5 3.358-7.5 7.5s3.358 7.5 7.5 7.5h16.896c4.142 0 7.5-3.358 7.5-7.5s-3.358-7.5-7.5-7.5z"/><path d="m121.694 468.641h69.346c1.989 0 3.897-.79 5.303-2.197l19.981-19.981c2.929-2.929 2.929-7.678 0-10.606-2.929-2.929-7.678-2.929-10.606 0l-17.784 17.784h-66.24c-4.142 0-7.5 3.358-7.5 7.5s3.358 7.5 7.5 7.5z"/><path d="m121.694 442.783h54.066c4.142 0 7.5-3.358 7.5-7.5s-3.358-7.5-7.5-7.5h-54.066c-4.142 0-7.5 3.358-7.5 7.5s3.358 7.5 7.5 7.5z"/><path d="m107.023 220.64h52.702l14.258 14.258c1.464 1.464 3.384 2.197 5.303 2.197s3.839-.732 5.303-2.197c2.929-2.929 2.929-7.678 0-10.606l-16.455-16.455c-1.406-1.407-3.314-2.197-5.303-2.197h-55.809c-4.142 0-7.5 3.358-7.5 7.5s3.359 7.5 7.501 7.5z"/><path d="m107.023 195.957h49.932c4.142 0 7.5-3.358 7.5-7.5s-3.358-7.5-7.5-7.5h-49.932c-4.142 0-7.5 3.358-7.5 7.5s3.358 7.5 7.5 7.5z"/><path d="m398.23 49.951h-159.271c-4.142 0-7.5 3.358-7.5 7.5s3.358 7.5 7.5 7.5h159.271c4.142 0 7.5-3.358 7.5-7.5s-3.358-7.5-7.5-7.5z"/></g></g></svg>